<svg width="24" height="24" viewBox="0 0 24 24" fill="none" xmlns="http://www.w3.org/2000/svg">
<path fill-rule="evenodd" clip-rule="evenodd" d="M19.2282 10.1394L19.2282 10.1394L21.3574 14.1666C21.8665 15.1295 22.2858 15.9226 22.5206 16.5699C22.7613 17.2334 22.8793 17.9288 22.5354 18.5893C22.1787 19.2745 21.5302 19.5345 20.8543 19.6452C20.216 19.7498 19.3729 19.7497 18.3735 19.7497L16.1805 19.7497C15.5811 19.7497 15.0507 19.7498 14.6233 19.6864C14.1537 19.6167 13.703 19.4575 13.3444 19.0618C12.9953 18.6767 12.864 18.2106 12.8054 17.7295C12.7498 17.2734 12.7499 16.702 12.7499 16.0304V16.0304L12.7499 12.0059V12.0059C12.7499 9.80944 12.7499 8.09512 12.8805 6.89513C12.9462 6.29206 13.0506 5.75195 13.2394 5.32294C13.4345 4.87926 13.7601 4.47108 14.2952 4.31145C14.8419 4.1484 15.3373 4.32467 15.7317 4.61653C16.104 4.89208 16.4474 5.31064 16.7801 5.7959C17.4431 6.76282 18.2271 8.24575 19.2282 10.1394ZM7.21974 5.7959C6.55681 6.76283 5.77279 8.24578 4.77165 10.1394L2.6425 14.1666C2.1334 15.1295 1.71407 15.9226 1.47926 16.5699C1.23856 17.2334 1.1206 17.9288 1.46444 18.5893C1.82112 19.2745 2.46967 19.5345 3.14558 19.6452C3.7839 19.7498 4.62699 19.7497 5.62636 19.7497H5.62637L7.81937 19.7497C8.41878 19.7497 8.94913 19.7498 9.37661 19.6864C9.84618 19.6167 10.2969 19.4575 10.6555 19.0618C11.0046 18.6767 11.1358 18.2106 11.1945 17.7295C11.25 17.2733 11.25 16.7019 11.25 16.0304V16.0304L11.25 12.0059V12.0059C11.25 9.80944 11.25 8.09512 11.1194 6.89513C11.0537 6.29206 10.9492 5.75195 10.7605 5.32294C10.5653 4.87926 10.2398 4.47108 9.70462 4.31145C9.15801 4.1484 8.66255 4.32467 8.26821 4.61653C7.89589 4.89208 7.55243 5.31064 7.21974 5.7959Z" fill="#000000"/>
</svg>
