<svg width="24" height="24" viewBox="0 0 24 24" fill="none" xmlns="http://www.w3.org/2000/svg">
<path d="M11.0237 7.32115V3.60705H9.02656C8.21588 3.60705 7.67531 3.6077 7.25344 3.64604C6.85221 3.68253 6.63247 3.74803 6.45935 3.83918C6.28626 3.93034 6.11189 4.07289 5.8664 4.37689C5.60825 4.6966 5.32067 5.13155 4.89023 5.7851L3.55372 7.81443C3.26746 8.24889 2.6645 8.38044 2.20767 8.10822C1.75092 7.83594 1.61262 7.2624 1.89881 6.82787L3.23532 4.79944C3.64633 4.17541 3.99023 3.65148 4.31826 3.24525C4.65886 2.82349 5.02512 2.47153 5.51369 2.21426C6.0024 1.95694 6.51081 1.84869 7.06755 1.79806C7.60359 1.74932 8.25246 1.75 9.02656 1.75H15.0285C15.8197 1.75 16.4826 1.74931 17.0294 1.79987C17.5973 1.85238 18.1151 1.96537 18.6109 2.2324C19.1067 2.49943 19.4745 2.86354 19.814 3.29966C20.1409 3.71969 20.4813 4.26025 20.8884 4.90554L22.1105 6.84329C22.3878 7.28298 22.2381 7.85342 21.7759 8.11729C21.3136 8.3811 20.7139 8.23864 20.4365 7.79902L19.2144 5.86126C18.7881 5.18546 18.5025 4.735 18.2449 4.4041C18.0002 4.08974 17.8244 3.94274 17.6491 3.84825C17.4736 3.75375 17.2503 3.68574 16.8407 3.64786C16.4099 3.60802 15.857 3.60705 15.0285 3.60705H12.976V7.32115C12.976 7.83396 12.539 8.24968 11.9999 8.24968C11.4608 8.24968 11.0237 7.83396 11.0237 7.32115Z" fill="#000000"/>
<path d="M20.5428 15.5431C20.9333 15.1526 21.5663 15.1526 21.9568 15.5431C22.3474 15.9337 22.3474 16.5667 21.9568 16.9572L20.1639 18.7502L21.9568 20.5431C22.3474 20.9337 22.3474 21.5667 21.9568 21.9572C21.5663 22.3477 20.9333 22.3477 20.5428 21.9572L18.7498 20.1642L16.9568 21.9572C16.5663 22.3477 15.9333 22.3477 15.5428 21.9572C15.1522 21.5667 15.1522 20.9337 15.5428 20.5431L17.3357 18.7502L15.5428 16.9572C15.1522 16.5667 15.1522 15.9337 15.5428 15.5431C15.9333 15.1526 16.5663 15.1526 16.9568 15.5431L18.7498 17.3361L20.5428 15.5431Z" fill="#000000"/>
<path d="M21.4998 6.75C21.914 6.75 22.2498 7.08579 22.2498 7.5V13.5498C22.2498 13.7844 22.2481 14.013 22.2478 14.2354C21.4725 13.8511 20.5227 13.9397 19.8298 14.5049L19.6589 14.6592L18.7498 15.5684L17.8406 14.6592C16.9619 13.7805 15.5376 13.7805 14.6589 14.6592C13.7804 15.5379 13.7803 16.9622 14.6589 17.8408L15.5681 18.75L14.6589 19.6592C13.9583 20.36 13.8181 21.4068 14.2351 22.248C14.0128 22.2484 13.7841 22.25 13.5496 22.25H10.45C8.60918 22.25 7.15103 22.25 6.0105 22.0967C4.8383 21.939 3.88962 21.6067 3.14136 20.8584C2.39313 20.1101 2.06071 19.1615 1.90308 17.9893C1.74974 16.8487 1.74974 15.3906 1.74976 13.5498V7.5C1.74976 7.08587 2.08566 6.75013 2.49976 6.75H21.4998ZM9.99976 9.75C9.58565 9.75013 9.24976 10.0859 9.24976 10.5C9.24976 10.9141 9.58565 11.2499 9.99976 11.25H13.9998C14.414 11.25 14.7498 10.9142 14.7498 10.5C14.7498 10.0858 14.414 9.75 13.9998 9.75H9.99976Z" fill="#000000"/>
</svg>
