<svg width="24" height="24" viewBox="0 0 24 24" fill="none" xmlns="http://www.w3.org/2000/svg">
<path d="M22.25 7.33594V14.5703L20.8359 13.1562L18.5859 15.4062L16.3359 13.1562L13.1543 16.3379L15.4043 18.5879L13.1543 20.8379L14.5664 22.25H1.75V7.32715L5.24414 1.75H18.8984L22.25 7.33594ZM9.25 9.75V11.25H14.75V9.75H9.25ZM4.49023 6.63184H11.0234V3.70312H6.32422L4.49023 6.63184ZM12.9766 6.63184H19.5498L17.792 3.70312H12.9766V6.63184Z" fill="#000000"/>
<path d="M22.25 16.3359L20 18.5859L22.25 20.8359L20.8359 22.25L18.5859 20L16.3359 22.25L14.9219 20.8359L17.1719 18.5859L14.9219 16.3359L16.3359 14.9219L18.5859 17.1719L20.8359 14.9219L22.25 16.3359Z" fill="#000000"/>
</svg>
