<svg width="24" height="24" viewBox="0 0 24 24" fill="none" xmlns="http://www.w3.org/2000/svg">
<path d="M11.25 5.25H12C13.1848 5.25 14.3488 5.56189 15.375 6.15433C16.4011 6.74676 17.2532 7.59887 17.8456 8.625C18.4381 9.65113 18.75 10.8151 18.75 12C18.75 13.1849 18.4381 14.3489 17.8456 15.375C17.2532 16.4011 16.4011 17.2532 15.375 17.8457C14.3488 18.4381 13.1848 18.75 12 18.75C10.8151 18.75 9.6511 18.4381 8.62497 17.8457C7.59884 17.2532 6.74673 16.4011 6.1543 15.375L5.7793 14.7255L11.25 11.567V5.25Z" fill="#000000"/>
<path d="M20.7955 12C20.7955 7.1424 16.8576 3.20455 12 3.20455C7.1424 3.20455 3.20455 7.1424 3.20455 12C3.20455 16.8576 7.1424 20.7955 12 20.7955C16.8576 20.7955 20.7955 16.8576 20.7955 12ZM22.75 12C22.75 17.9371 17.9371 22.75 12 22.75C6.06294 22.75 1.25 17.9371 1.25 12C1.25 6.06294 6.06294 1.25 12 1.25C17.9371 1.25 22.75 6.06294 22.75 12Z" fill="#000000"/>
</svg>
