<svg width="24" height="24" viewBox="0 0 24 24" fill="none" xmlns="http://www.w3.org/2000/svg">
<path d="M20.7955 12C20.7955 7.1424 16.8576 3.20455 12 3.20455C7.1424 3.20455 3.20455 7.1424 3.20455 12C3.20455 16.8576 7.1424 20.7955 12 20.7955C16.8576 20.7955 20.7955 16.8576 20.7955 12ZM22.75 12C22.75 17.9371 17.9371 22.75 12 22.75C6.06294 22.75 1.25 17.9371 1.25 12C1.25 6.06294 6.06294 1.25 12 1.25C17.9371 1.25 22.75 6.06294 22.75 12Z" fill="#000000"/>
<path d="M11.25 6C11.25 5.58579 11.5858 5.25 12 5.25C13.1849 5.25 14.3489 5.56189 15.375 6.15433C16.4011 6.74676 17.2532 7.59887 17.8457 8.625C18.4381 9.65113 18.75 10.8151 18.75 12C18.75 13.1849 18.4381 14.3489 17.8457 15.375C17.2532 16.4011 16.4011 17.2532 15.375 17.8457C14.3489 18.4381 13.1849 18.75 12 18.75C10.8151 18.75 9.65112 18.4381 8.62499 17.8457C7.59886 17.2532 6.74675 16.4011 6.15432 15.375C6.05486 15.2027 6.02791 14.998 6.07939 14.8059C6.13087 14.6138 6.25657 14.4499 6.42884 14.3505L11.25 11.567V6Z" fill="#000000"/>
</svg>
