<svg width="24" height="24" viewBox="0 0 24 24" fill="none" xmlns="http://www.w3.org/2000/svg">
<path d="M13.0595 3.64941C12.7769 3.43426 12.434 3.25 12 3.25C11.5659 3.25 11.223 3.43426 10.9404 3.64941C10.6752 3.85133 10.3875 4.14146 10.0732 4.45508L8.42086 6.10254L8.39212 6.13121C7.70482 6.81695 7.13057 7.3899 6.76851 7.87012C6.41942 8.33316 6.06441 8.97281 6.35738 9.67871C6.6501 10.3838 7.35309 10.5859 7.92769 10.667C8.53206 10.7522 9.35853 10.75 10.3486 10.75H13.6513C14.6414 10.75 15.4679 10.7522 16.0722 10.667C16.6468 10.5859 17.3498 10.3838 17.6425 9.67871C17.9355 8.97281 17.5805 8.33316 17.2314 7.87012C16.8693 7.3899 16.2951 6.81694 15.6078 6.1312L15.5791 6.10254L13.9267 4.45508C13.6124 4.14146 13.3248 3.85133 13.0595 3.64941Z" fill="#000000"/>
<path d="M16.0722 13.333C15.4679 13.2478 14.6414 13.25 13.6513 13.25H10.3486C9.35853 13.25 8.53206 13.2478 7.92769 13.333C7.3891 13.409 6.73756 13.5912 6.41695 14.1943L6.35738 14.3213C6.06441 15.0272 6.41942 15.6668 6.76851 16.1299C7.13057 16.6101 7.70482 17.1831 8.39212 17.8688L8.42086 17.8975L10.0732 19.5449C10.3875 19.8585 10.6752 20.1487 10.9404 20.3506C11.223 20.5657 11.5659 20.75 12 20.75C12.434 20.75 12.7769 20.5657 13.0595 20.3506C13.3248 20.1487 13.6124 19.8585 13.9267 19.5449L15.5791 17.8975L15.6078 17.8688C16.2951 17.1831 16.8693 16.6101 17.2314 16.1299C17.5588 15.6957 17.8918 15.106 17.6904 14.4522L17.6425 14.3213L17.583 14.1943C17.2624 13.5912 16.6108 13.409 16.0722 13.333Z" fill="#000000"/>
</svg>
